<?xml version="1.0" encoding="UTF-8"?>
<!-- Generator: Adobe Illustrator 16.0.4, SVG Export Plug-In . SVG Version: 6.00 Build 0)  -->
<!DOCTYPE svg PUBLIC "-//W3C//DTD SVG 1.1//EN" "http://www.w3.org/Graphics/SVG/1.1/DTD/svg11.dtd">
<svg version="1.1" id="Layer_1" xmlns="http://www.w3.org/2000/svg" xmlns:xlink="http://www.w3.org/1999/xlink" x="0px" y="0px" width="40px" height="100px" viewBox="0 0 40 100" enable-background="new 0 0 40 100" xml:space="preserve">
<path fill="#010101" d="M26.608,7.793c-0.09-1.613-0.537-6.637-7.256-6.817c-6.718-0.179-6.898,6.629-6.898,6.629  S20.366,9.619,26.608,7.793z"/>
<path fill="#010101" d="M26.738,15.141c-6.795,1.638-14.486,0-14.486,0s-3.114,61.58-3.24,80.237  C9,97.099,13.058,98.381,19.738,98.381c6.682,0,10.573-1.643,10.572-3.584C30.306,84.296,26.738,15.141,26.738,15.141z   M13.586,27.329l0.939-0.966c0.07-0.072,0.164-0.113,0.264-0.113c0.099,0,0.192,0.04,0.264,0.111l1.498,1.542l1.499-1.541  c0.069-0.072,0.163-0.113,0.263-0.113c0.101,0,0.195,0.041,0.265,0.114l0.939,0.964c0.144,0.151,0.144,0.393,0.001,0.541l-1.5,1.542  l1.499,1.542c0.145,0.148,0.145,0.39,0.001,0.54l-0.94,0.967c-0.07,0.072-0.164,0.112-0.263,0.112c-0.101,0-0.193-0.04-0.264-0.112  l-1.5-1.542l-1.499,1.542c-0.07,0.072-0.164,0.112-0.263,0.112c-0.099,0-0.193-0.04-0.263-0.112l-0.939-0.966  c-0.145-0.149-0.145-0.392,0-0.541l1.499-1.542l-1.499-1.54c-0.071-0.072-0.109-0.169-0.109-0.271  C13.477,27.498,13.516,27.401,13.586,27.329z M19.513,39.81l-0.973,1.001c-0.073,0.075-0.17,0.115-0.271,0.115  c-0.103,0-0.2-0.041-0.272-0.114l-1.554-1.597l-1.552,1.596c-0.073,0.075-0.169,0.115-0.272,0.115s-0.199-0.041-0.271-0.114  l-0.973-1.002c-0.073-0.074-0.113-0.173-0.113-0.279c0-0.106,0.04-0.206,0.113-0.282l1.551-1.595l-1.551-1.596  c-0.073-0.074-0.113-0.173-0.113-0.279s0.041-0.207,0.113-0.281l0.972-1c0.073-0.075,0.17-0.117,0.272-0.117  c0.102,0,0.199,0.041,0.272,0.115l1.552,1.597l1.552-1.595c0.072-0.075,0.17-0.117,0.272-0.117c0.104,0,0.201,0.042,0.273,0.118  l0.973,0.999c0.149,0.156,0.149,0.408,0,0.561l-1.552,1.596l1.552,1.596C19.663,39.404,19.663,39.655,19.513,39.81z M19.851,23.378  l-0.926,0.951c-0.069,0.071-0.161,0.11-0.259,0.11c-0.099,0-0.19-0.039-0.26-0.111l-1.477-1.518l-1.476,1.518  c-0.07,0.072-0.162,0.11-0.261,0.11c-0.098,0-0.19-0.039-0.26-0.111l-0.925-0.951c-0.143-0.147-0.143-0.386,0-0.533l1.477-1.518  l-1.477-1.518c-0.143-0.148-0.143-0.387,0-0.533l0.926-0.952c0.072-0.071,0.164-0.11,0.26-0.11c0.098,0,0.189,0.039,0.26,0.11  l1.476,1.518l1.476-1.518c0.071-0.071,0.163-0.11,0.261-0.11s0.188,0.039,0.258,0.11l0.927,0.952  c0.142,0.146,0.142,0.385,0.001,0.532l-1.478,1.52l1.477,1.518C19.992,22.991,19.992,23.23,19.851,23.378z"/>
<path fill="#010101" d="M27.799,13.439c0,0.327-0.134,0.593-0.463,0.593c0,0-3.714,0.627-4.985,0.716  c-1.317,0.093-3.935,0.088-5.252,0c-1.341-0.089-5.282-0.716-5.282-0.716c-0.327,0-0.553-0.266-0.553-0.593V9.25  c0-0.328,0.243-0.592,0.57-0.592c0,0,3.768,0.627,5.04,0.717c1.251,0.089,3.76,0.094,5.011,0c1.405-0.106,5.454-0.717,5.454-0.717  c0.33,0,0.461,0.265,0.461,0.592V13.439z"/>
</svg>