<?xml version="1.0" encoding="UTF-8"?>
<svg xmlns="http://www.w3.org/2000/svg" xmlns:xlink="http://www.w3.org/1999/xlink" version="1.1" width="400" height="400">
<path style="fill:#3f1f00;fill-opacity:0.8;stroke:#000000;stroke-width:2;stroke-linejoin:round;stroke-linecap:round" d="M 90.8622498968,84.0518258561 191.563223463,235.84751244 290.502927015,77.8043631166 90.8622498968,84.0518258561"/><path style="fill:#3f1f06;fill-opacity:0.8;stroke:#000000;stroke-width:2;stroke-linejoin:round;stroke-linecap:round" d="M 290.502927015,77.8043631166 191.563223463,235.84751244 359.857420425,262.582098373 290.502927015,77.8043631166"/><path style="fill:#3f200f;fill-opacity:0.8;stroke:#000000;stroke-width:2;stroke-linejoin:round;stroke-linecap:round" d="M 36.83201931,272.690705429 90.8622498968,84.0518258561 191.563223463,235.84751244 36.83201931,272.690705429"/><path style="fill:#3f284b;fill-opacity:0.8;stroke:#000000;stroke-width:2;stroke-linejoin:round;stroke-linecap:round" d="M 196.919822494,16.9715181351 90.8622498968,84.0518258561 290.502927015,77.8043631166 196.919822494,16.9715181351"/><path style="fill:#3f2956;fill-opacity:0.8;stroke:#000000;stroke-width:2;stroke-linejoin:round;stroke-linecap:round" d="M 363.16798069,127.309294571 290.502927015,77.8043631166 359.857420425,262.582098373 363.16798069,127.309294571"/><path style="fill:#3f2b63;fill-opacity:0.8;stroke:#000000;stroke-width:2;stroke-linejoin:round;stroke-linecap:round" d="M 40.1425795753,137.417901627 36.83201931,272.690705429 90.8622498968,84.0518258561 40.1425795753,137.417901627"/><path style="fill:#3f2c69;fill-opacity:0.8;stroke:#000000;stroke-width:2;stroke-linejoin:round;stroke-linecap:round" d="M 309.137750103,315.948174144 109.497072985,322.195636883 36.83201931,272.690705429 191.563223463,235.84751244 359.857420425,262.582098373 309.137750103,315.948174144"/><path style="fill:#3f2f80;fill-opacity:0.8;stroke:#000000;stroke-width:2;stroke-linejoin:round;stroke-linecap:round" d="M 196.919822494,16.9715181351 290.502927015,77.8043631166 363.16798069,127.309294571 196.919822494,16.9715181351"/><path style="fill:#3f3088;fill-opacity:0.8;stroke:#000000;stroke-width:2;stroke-linejoin:round;stroke-linecap:round" d="M 40.1425795753,137.417901627 196.919822494,16.9715181351 90.8622498968,84.0518258561 40.1425795753,137.417901627"/><path style="fill:#3f329b;fill-opacity:0.8;stroke:#000000;stroke-width:2;stroke-linejoin:round;stroke-linecap:round" d="M 309.137750103,315.948174144 363.16798069,127.309294571 359.857420425,262.582098373 309.137750103,315.948174144"/><path style="fill:#3f34a8;fill-opacity:0.8;stroke:#000000;stroke-width:2;stroke-linejoin:round;stroke-linecap:round" d="M 109.497072985,322.195636883 40.1425795753,137.417901627 36.83201931,272.690705429 109.497072985,322.195636883"/><path style="fill:#3f3adf;fill-opacity:0.8;stroke:#000000;stroke-width:2;stroke-linejoin:round;stroke-linecap:round" d="M 363.16798069,127.309294571 196.919822494,16.9715181351 208.436776537,164.15248756 363.16798069,127.309294571"/><path style="fill:#3f3be4;fill-opacity:0.8;stroke:#000000;stroke-width:2;stroke-linejoin:round;stroke-linecap:round" d="M 208.436776537,164.15248756 40.1425795753,137.417901627 196.919822494,16.9715181351 208.436776537,164.15248756"/><path style="fill:#3f3def;fill-opacity:0.8;stroke:#000000;stroke-width:2;stroke-linejoin:round;stroke-linecap:round" d="M 309.137750103,315.948174144 363.16798069,127.309294571 208.436776537,164.15248756 309.137750103,315.948174144"/><path style="fill:#3f3ef8;fill-opacity:0.8;stroke:#000000;stroke-width:2;stroke-linejoin:round;stroke-linecap:round" d="M 109.497072985,322.195636883 208.436776537,164.15248756 40.1425795753,137.417901627 109.497072985,322.195636883"/><path style="fill:#3f3fff;fill-opacity:0.8;stroke:#000000;stroke-width:2;stroke-linejoin:round;stroke-linecap:round" d="M 309.137750103,315.948174144 208.436776537,164.15248756 109.497072985,322.195636883 309.137750103,315.948174144"/></svg>