<?xml version="1.0" encoding="utf-8"?>
<svg width="32" xmlns="http://www.w3.org/2000/svg" height="32" viewBox="0 0 32 32" xmlns:inkscape="http://www.inkscape.org/namespaces/inkscape">
  <g opacity="1" xmlns:bgra="https://wiki.freepascal.org/LazPaint_SVG_format" inkscape:label="Layer1" inkscape:groupmode="layer" bgra:originalViewBox="5 9 22 19">
    <path d="M5.5 20 5.5 16 26.5 16 26.5 20 z" fill="black" stroke="none" fill-opacity="0.7921569"/>
    <path d="M12.75251 22.04217 13.09534 23.19122 Q13.43817 24.34027 14.87291 24.68846 16.30765 25.03665 17.72187 25.00318 19.13608 24.96971 19.62222 24.21841 20.10835 23.46711 19.84319 22.09709 19.57802 20.72707 17.63348 20.15254 15.68893 19.57802 13.656 19.04769 11.62307 18.51736 10.6508 17.58928 9.678525 16.6612 9.715137 15.01844 9.751749 13.37567 10.37491 12.35699 10.99807 11.3383 12.40692 10.6495 13.81577 9.960694 16.07282 9.905777 18.32986 9.85086 19.50702 10.39635 20.68418 10.94185 21.48281 11.75473 22.28145 12.56761 22.42475 13.25641 L22.56806 13.94522 19.36463 14.05505 18.8343 13.45242 Q18.30397 12.84978 16.6969 12.91006 15.08982 12.97034 14.06355 13.59442 13.03728 14.2185 12.9489 14.86533 12.86051 15.51216 15.55635 16.39604 18.25219 17.27992 19.53383 17.72186 20.81546 18.16381 21.74354 18.91511 22.67161 19.66641 22.89258 21.12482 23.11356 22.58323 22.76 23.90905 22.40645 25.23488 20.58506 26.62634 18.76368 28.01781 16.35797 27.99636 13.95226 27.97491 12.90324 27.45439 11.85423 26.93386 10.85476 26.08437 9.855302 25.23488 9.720498 23.62022 L9.585694 22.00556 z" fill="black" stroke="none" fill-opacity="0.7921569"/>
  </g>
</svg>
